<svg id="Layer_1" data-name="Layer 1" xmlns="http://www.w3.org/2000/svg" xmlns:xlink="http://www.w3.org/1999/xlink" viewBox="0 0 94.49 94.52"><defs><style>.cls-1{fill:url(#linear-gradient);}</style><linearGradient id="linear-gradient" x1="387.53" y1="331.04" x2="454.35" y2="264.22" gradientUnits="userSpaceOnUse"><stop offset="0" stop-color="#02d4ff"/><stop offset="1" stop-color="#004eff"/></linearGradient></defs><path class="cls-1" d="M435.27,307l-16.58,37.89a47.05,47.05,0,0,1-30.62-13.26l27.76-25.31-4.08-4.08L387,330.46a47.08,47.08,0,0,1-13.24-31.29l35.54-15.55L419,273.09l-6.14,12.24-3.45,1.39a21.5,21.5,0,0,0,21.5,21.5l1.93-3.58,11.92-6.2Zm19.08-42.73a47.25,47.25,0,0,0-80.65,32.39l38.43-20.26A21.48,21.48,0,1,1,442,305.13L421,344.9a47.26,47.26,0,0,0,33.33-80.68Z" transform="translate(-373.7 -250.38)"/></svg>